<?xml version="1.0" encoding="utf-8"?>
<!-- Generator: Adobe Illustrator 23.0.1, SVG Export Plug-In . SVG Version: 6.00 Build 0)  -->
<svg version="1.1" id="Layer_1" xmlns="http://www.w3.org/2000/svg" xmlns:xlink="http://www.w3.org/1999/xlink" x="0px" y="0px"
	 viewBox="0 0 171.4 10.2" style="enable-background:new 0 0 171.4 10.2;" xml:space="preserve">
<style type="text/css">
	.st0{fill:#2D2B2D;}
</style>
<g>
	<path class="st0" d="M0,0.2h4.5c1.2,0,2.2,0.4,2.9,1c0.5,0.5,0.8,1.3,0.8,2.2v0c0,1.6-0.9,2.6-2.1,3L8.5,10H6L3.9,6.9H2.2V10H0V0.2
		z M4.4,5C5.4,5,6,4.4,6,3.6v0c0-0.9-0.6-1.4-1.7-1.4H2.2V5H4.4z"/>
	<path class="st0" d="M11.9,5.1L11.9,5.1c0-2.8,2.2-5.1,5.2-5.1c3,0,5.2,2.3,5.2,5v0c0,2.8-2.2,5.1-5.2,5.1
		C14.1,10.2,11.9,7.9,11.9,5.1z M20.1,5.1L20.1,5.1c0-1.7-1.2-3.1-3-3.1c-1.7,0-2.9,1.4-2.9,3.1v0c0,1.7,1.2,3.1,3,3.1
		S20.1,6.8,20.1,5.1z"/>
	<path class="st0" d="M26.5,0.2h4.6c1.1,0,2,0.3,2.6,0.9c0.4,0.4,0.7,1,0.7,1.7v0c0,1.1-0.6,1.7-1.3,2.1c1.1,0.4,1.8,1.1,1.8,2.4v0
		c0,1.8-1.5,2.7-3.7,2.7h-4.7V0.2z M32.2,3.1c0-0.6-0.5-1-1.4-1h-2.1v2.1h2C31.6,4.2,32.2,3.8,32.2,3.1L32.2,3.1z M31.1,5.9h-2.5
		v2.2h2.6c1,0,1.5-0.3,1.5-1.1v0C32.7,6.4,32.2,5.9,31.1,5.9z"/>
	<path class="st0" d="M38.9,0.2h7.4v1.9H41v2h4.6V6H41v2.1h5.3V10h-7.5V0.2z"/>
	<path class="st0" d="M50.5,0.2H55c1.2,0,2.2,0.4,2.9,1c0.5,0.5,0.8,1.3,0.8,2.2v0c0,1.6-0.9,2.6-2.1,3L59,10h-2.5l-2.1-3.1h-1.7V10
		h-2.2V0.2z M54.8,5c1.1,0,1.7-0.6,1.7-1.4v0c0-0.9-0.6-1.4-1.7-1.4h-2.1V5H54.8z"/>
	<path class="st0" d="M65.1,2.2h-3v-2h8.1v2h-3V10h-2.2V2.2z"/>
	<path class="st0" d="M80.6,0.2h2.2v3.9h4V0.2h2.2V10h-2.2V6.1h-4V10h-2.2V0.2z"/>
	<path class="st0" d="M96.8,0.1h2L103,10h-2.3l-0.9-2.2h-4.1L94.8,10h-2.2L96.8,0.1z M99.1,5.9l-1.3-3.2l-1.3,3.2H99.1z"/>
	<path class="st0" d="M106.8,0.2h2.3l2.6,4.1l2.6-4.1h2.3V10h-2.1V3.6l-2.8,4.2h-0.1l-2.7-4.1V10h-2.1V0.2z"/>
	<path class="st0" d="M121.3,0.2h2.2V10h-2.2V0.2z"/>
	<path class="st0" d="M128.1,0.2h2.2V8h4.9v2h-7V0.2z"/>
	<path class="st0" d="M139.9,2.2h-3v-2h8.1v2h-3V10h-2.2V2.2z"/>
	<path class="st0" d="M148.1,5.1L148.1,5.1c0-2.8,2.2-5.1,5.2-5.1c3,0,5.2,2.3,5.2,5v0c0,2.8-2.2,5.1-5.2,5.1
		C150.2,10.2,148.1,7.9,148.1,5.1z M156.2,5.1L156.2,5.1c0-1.7-1.2-3.1-3-3.1c-1.7,0-2.9,1.4-2.9,3.1v0c0,1.7,1.2,3.1,3,3.1
		S156.2,6.8,156.2,5.1z"/>
	<path class="st0" d="M162.6,0.2h2l4.6,6v-6h2.1V10h-1.8l-4.7-6.2V10h-2.1V0.2z"/>
</g>
</svg>
