<?xml version="1.0" encoding="utf-8"?>
<!-- Generator: Adobe Illustrator 23.0.1, SVG Export Plug-In . SVG Version: 6.00 Build 0)  -->
<svg version="1.1" id="Layer_1" xmlns="http://www.w3.org/2000/svg" xmlns:xlink="http://www.w3.org/1999/xlink" x="0px" y="0px"
	 viewBox="0 0 43 25.1" style="enable-background:new 0 0 43 25.1;" xml:space="preserve">
<style type="text/css">
	.st0{fill:#2D2B2D;}
</style>
<g>
	<path class="st0" d="M42.5,13.5c-0.2-0.2-0.6-0.3-0.9-0.2c-0.3,0-0.6,0.2-0.8,0.4c-6.1,7.9-18.4,11.1-23.5,7.8
		C11.6,17.7,16.5,8,18.6,3.9c1.1-2.1,1.5-3,0.4-3.7c-1.1-0.6-1.3-0.2-3,2.9l-0.2,0.3c-0.3,0.5-0.5,1-0.8,1.4
		c-4.3,7.6-9.2,13.6-14.6,17.8C0.2,22.8,0,23,0,23.4c0,0.3,0,0.6,0.2,0.9c0.2,0.2,0.5,0.4,0.8,0.4c0.3,0,0.6,0,0.9-0.2
		c3.8-2.9,7.4-6.8,10.7-11.4c-0.9,4.8,0.3,8.4,3.6,10.5c1.6,1.1,3.9,1.6,6.5,1.6c6,0,14.8-3.1,20.1-10c0.2-0.2,0.3-0.6,0.2-0.9
		C43,14,42.8,13.7,42.5,13.5z"/>
</g>
</svg>
